<svg width="900" height="900" viewBox="0 0 900 900" fill="none" xmlns="http://www.w3.org/2000/svg">
<path d="M749.585 219L696.212 276.855H547.798C546.171 276.856 544.613 277.516 543.482 278.687L504.677 318.862C500.998 322.671 503.697 329.031 508.992 329.031H645.135L591.905 385.849H528.931C527.367 385.849 525.87 386.458 524.754 387.541L524.536 387.764L487.644 427.466C484.077 431.304 486.799 437.55 492.039 437.55H677.913L616.536 476.834H441.496C439.819 476.834 438.219 477.536 437.083 478.769L410.111 508.045C406.569 511.89 409.296 518.11 414.523 518.11H549.688L488.34 555.499H445.317C444.337 555.499 443.374 555.739 442.511 556.196L442.147 556.405L168.117 726.984L317.967 565.581C321.531 561.742 318.808 555.499 313.569 555.499H226.573L385.759 396.088C389.534 392.307 386.856 385.849 381.513 385.849H273.897L433.26 219H749.585Z" fill="#1C4DF6" stroke="#0F1840" stroke-width="10"/>
</svg>
